<!DOCTYPE svg PUBLIC "-//W3C//DTD SVG 1.1//EN" "http://www.w3.org/Graphics/SVG/1.1/DTD/svg11.dtd">
<!-- Uploaded to: SVG Repo, www.svgrepo.com, Transformed by: SVG Repo Mixer Tools -->
<svg height="800px" width="800px" version="1.1" id="Layer_1" xmlns="http://www.w3.org/2000/svg" xmlns:xlink="http://www.w3.org/1999/xlink" viewBox="0 0 512 512" xml:space="preserve" fill="#000000">
<g id="SVGRepo_bgCarrier" stroke-width="0"/>
<g id="SVGRepo_tracerCarrier" stroke-linecap="round" stroke-linejoin="round"/>
<g id="SVGRepo_iconCarrier"> <g> <path style="fill:#5c0700;" d="M478.801,67.022v90.543H256.34c0.744-2.749,1.293-5.562,1.698-8.44l15.489-82.103 C273.527,67.022,478.801,67.022,478.801,67.022z"/> <path style="fill:#5c0700;" d="M478.801,265.57v94.779c0,13.678-11.092,24.77-24.77,24.77h-97.657 c-0.614-4.624-0.938-9.345-0.938-14.131c0-58.934,47.778-106.711,106.711-106.711C467.807,264.277,473.369,264.713,478.801,265.57z "/> </g> <g> <path style="fill:#7f7f7f;" d="M69.288,401.288h38.772v22.914c0,8.93,7.239,16.168,16.168,16.168 c8.93,0,16.168-7.239,16.168-16.168v-22.914h215.978h97.657c22.574,0,40.938-18.364,40.938-40.938V265.57V157.565V67.022V33.036 c0-8.93-7.24-16.168-16.168-16.168s-16.168,7.239-16.168,16.168v17.818h-169.61l4.138-21.939 c1.652-8.776-4.121-17.229-12.896-18.883c-8.766-1.649-17.229,4.118-18.883,12.896l-23.232,123.2 c-0.047,0.249-0.087,0.5-0.123,0.749c-0.331,2.354-0.753,4.469-1.293,6.467c-0.157,0.582-0.275,1.166-0.365,1.749 c-0.024,0.152-0.032,0.304-0.052,0.456c-0.057,0.44-0.1,0.88-0.12,1.318c-0.008,0.17-0.005,0.338-0.006,0.508 c-0.005,0.422,0.002,0.842,0.029,1.26c0.011,0.176,0.027,0.349,0.045,0.525c0.04,0.412,0.097,0.82,0.17,1.226 c0.031,0.173,0.061,0.346,0.097,0.519c0.087,0.414,0.196,0.821,0.315,1.226c0.045,0.155,0.084,0.31,0.134,0.464 c0.165,0.501,0.352,0.993,0.564,1.473c0.021,0.047,0.036,0.097,0.057,0.144c0.236,0.524,0.504,1.032,0.796,1.526 c0.086,0.147,0.184,0.288,0.276,0.432c0.22,0.349,0.448,0.692,0.694,1.025c0.049,0.065,0.086,0.136,0.136,0.2 c0.073,0.095,0.158,0.178,0.233,0.272c0.247,0.31,0.508,0.611,0.778,0.902c0.129,0.139,0.257,0.276,0.391,0.411 c0.302,0.304,0.621,0.592,0.947,0.873c0.113,0.097,0.221,0.197,0.336,0.291c0.43,0.348,0.878,0.677,1.348,0.981 c0.018,0.011,0.034,0.026,0.052,0.037c0.5,0.322,1.022,0.618,1.562,0.886c0.086,0.042,0.175,0.074,0.26,0.115 c0.428,0.202,0.865,0.393,1.318,0.559c0.207,0.078,0.42,0.137,0.632,0.205c0.252,0.082,0.498,0.176,0.757,0.246 c0.078,0.021,0.155,0.027,0.233,0.047c0.449,0.115,0.905,0.199,1.365,0.275c0.217,0.036,0.432,0.087,0.648,0.113 c0.514,0.063,1.035,0.089,1.557,0.102c0.142,0.003,0.288,0.029,0.43,0.029c0.032,0,0.063-0.003,0.095-0.003h206.189v74.384 c-0.162,0-0.323-0.01-0.487-0.01c-67.073,0-121.732,54.025-122.828,120.843H69.288c-4.744,0-8.602-3.858-8.602-8.602v-49.378 c0-23.658,12.016-44.929,33.831-59.891c22.017-15.095,52.277-23.443,87.793-24.295l50.129,50.129 c3.158,3.158,7.295,4.736,11.433,4.736c4.137,0,8.277-1.578,11.433-4.736c6.314-6.314,6.314-16.552,0-22.867l-54.298-54.298 c-0.209-0.209-0.432-0.391-0.648-0.585c-2.931-2.97-7.001-4.815-11.505-4.815c-0.296,0-0.564,0.006-0.808,0.016 c-44.559,0.052-83.214,10.438-111.816,30.046c-30.877,21.179-47.881,51.92-47.881,86.561v49.378 C28.35,382.922,46.714,401.288,69.288,401.288z M275.949,141.397l10.982-58.206h175.702v58.206H275.949z M462.633,280.447v79.903 c0,4.744-3.859,8.602-8.602,8.602h-82.405C372.714,319.797,413.161,280.206,462.633,280.447z"/> <path style="fill:#7f7f7f;" d="M495.832,469.911H371.603v-23.346c0-8.93-7.24-16.168-16.168-16.168s-16.168,7.239-16.168,16.168 v23.346H72.116c-21.934,0-39.779-17.845-39.779-39.779c0-8.93-7.239-16.168-16.168-16.168S0,421.202,0,430.132 c0,39.765,32.351,72.118,72.116,72.118h423.716c8.928,0,16.168-7.239,16.168-16.168C512,477.151,504.761,469.911,495.832,469.911z"/> </g> </g>
</svg>