<?xml version="1.0" encoding="UTF-8"?>
<svg xmlns="http://www.w3.org/2000/svg" viewBox="0 0 836 836">
  <defs>
    <style>
      .cls-1 {
        fill: #262626;
      }

      .cls-1, .cls-2 {
        stroke: #000;
        stroke-linecap: round;
        stroke-linejoin: round;
        stroke-width: 12px;
      }

      .cls-2 {
        fill: #f7f5f2;
      }
    </style>
  </defs>
  <g id="Puck">
    <path class="cls-1" d="M760.333313,319.036987c0,70.821533-154.111328,128.233704-344.217346,128.233704s-344.217407-57.41217-344.217407-128.233704c0,0-8.552063,125.353699,0,193.304382,1.604919,12.752014,6.097656,24.467957,13.125916,35.19043,41.056396,53.71167,173.743286,93.043213,331.091492,93.043213,159.275513,0,293.261353-40.304016,332.538147-95.026428,6.578552-10.215515,10.604797-21.278992,11.679199-33.207214,5.860962-65.070679,0-193.304382,0-193.304382Z"/>
    <ellipse class="cls-1" cx="416.115952" cy="319.036987" rx="344.217392" ry="128.233704"/>
  </g>
  <g id="Text">
    <g>
      <path class="cls-2" d="M78.107829,342.340909c-6.806-14.513702-7.805405-31.889465-.075806-46.365906,18.947372-36.282593,76.406021-61.839447,111.526779-73.255661,38.462097-12.502335,90.797379-12.317505,83.978775,42.859909-.937256,8.050964-1.322388,12.111481-1.91272,20.289093-27.944778,1.086243-55.876373,2.402191-83.783112,4.235413,1.134171-8.243011,1.901764-12.326874,3.804581-20.39856,3.994537-13.842575-.392944-23.029068-16.608734-19.208847-14.428955,3.399277-27.600311,11.860275-32.690781,26.53093-8.555969,29.08017-8.556061,55.025696-.000259,84.105896,5.132111,14.539154,18.300186,22.947693,32.593979,26.304749,16.396423,3.850891,20.427277-5.940186,16.530716-19.730347-1.967621-8.477417-2.748825-12.768982-3.867279-21.43335,27.940811,1.719116,55.903458,2.953156,83.877701,3.971741.554749,8.189392.922485,12.256226,1.825745,20.320587,6.572113,55.424988-43.948547,57.795471-83.748611,44.875336-35.015045-11.366821-92.450958-36.966888-111.450974-73.100983Z"/>
      <path class="cls-2" d="M331.610057,197.853131c59.357666-4.982727,118.606842-4.7668,177.919189.744308,1.958038,11.513321,3.628601,23.075363,5.015503,34.671341-30.396881-1.88353-60.774078-2.909134-91.227783-3.17189.148926,21.099701.250793,42.199219.307343,63.299347,27.90686.060913,55.809784.288269,83.713715.69754.388702,12.942413.475922,25.893799.259949,38.84024-27.984589.226227-55.968842.351898-83.954285.38559-.06488,36.825409-.278381,73.648956-.652435,110.472534-30.566956-.010742-60.963745-1.216614-91.424805-3.767273-11.718689-80.684357-11.705292-161.490356.04361-242.171738Z"/>
      <path class="cls-2" d="M558.682567,364.317258c4.485901-54.691071.444824-107.813782-12.266602-161.200806,25.624512,3.956329,50.81842,8.915359,75.94281,15.326523,22.014771,47.584854,28.984863,95.235489,19.212341,146.861496-3.159729,12.596924,1.739868,26.15686,18.217346,21.433319,13.160706-3.772736,28.454102-13.148285,33.081543-27.926605,12.883057-46.557098,2.522644-86.614838-24.695435-125.780701,18.044983,7.22995,35.073181,15.234985,51.700073,25.288361,29.131226,22.338104,49.587097,47.752289,34.826721,85.101746-19.021973,35.561768-75.107178,60.234344-109.812683,71.66153-20.355408,6.70224-51.460327,15.68985-71.581421,1.369904-16.342773-11.630951-16.357239-34.163086-14.624695-52.134766Z"/>
    </g>
  </g>
</svg>